<mxfile host="app.diagrams.net" modified="2023-04-23T22:33:06.007Z" agent="Mozilla/5.0 (Windows NT 10.0; Win64; x64) AppleWebKit/537.36 (KHTML, like Gecko) Chrome/111.0.0.0 Safari/537.36 OPR/97.0.0.0" version="21.1.8" etag="Ydcc8-jPN4af2Ia_EY6G" type="github">
  <diagram name="Page-1" id="q8ELOtX2g7T7n1TwlHpk">
    <mxGraphModel>
      <root>
        <mxCell id="0" />
        <mxCell id="1" parent="0" />
      </root>
    </mxGraphModel>
  </diagram>
</mxfile>
